<svg width="138" height="41" viewBox="0 0 138 41" fill="none" xmlns="http://www.w3.org/2000/svg">
<path d="M56.531 14.88C57.701 14.88 58.745 15.123 59.663 15.609C60.599 16.095 61.328 16.815 61.85 17.769C62.372 18.723 62.633 19.875 62.633 21.225V30H59.582V21.684C59.582 20.352 59.249 19.335 58.583 18.633C57.917 17.913 57.008 17.553 55.856 17.553C54.704 17.553 53.786 17.913 53.102 18.633C52.436 19.335 52.103 20.352 52.103 21.684V30H49.025V15.123H52.103V16.824C52.607 16.212 53.246 15.735 54.02 15.393C54.812 15.051 55.649 14.88 56.531 14.88ZM65.5332 22.494C65.5332 21 65.8392 19.677 66.4512 18.525C67.0812 17.373 67.9272 16.482 68.9892 15.852C70.0692 15.204 71.2572 14.88 72.5532 14.88C73.7232 14.88 74.7402 15.114 75.6042 15.582C76.4862 16.032 77.1882 16.599 77.7102 17.283V15.123H80.8152V30H77.7102V27.786C77.1882 28.488 76.4772 29.073 75.5772 29.541C74.6772 30.009 73.6512 30.243 72.4992 30.243C71.2212 30.243 70.0512 29.919 68.9892 29.271C67.9272 28.605 67.0812 27.687 66.4512 26.517C65.8392 25.329 65.5332 23.988 65.5332 22.494ZM77.7102 22.548C77.7102 21.522 77.4942 20.631 77.0622 19.875C76.6482 19.119 76.0992 18.543 75.4152 18.147C74.7312 17.751 73.9932 17.553 73.2012 17.553C72.4092 17.553 71.6712 17.751 70.9872 18.147C70.3032 18.525 69.7452 19.092 69.3132 19.848C68.8992 20.586 68.6922 21.468 68.6922 22.494C68.6922 23.52 68.8992 24.42 69.3132 25.194C69.7452 25.968 70.3032 26.562 70.9872 26.976C71.6892 27.372 72.4272 27.57 73.2012 27.57C73.9932 27.57 74.7312 27.372 75.4152 26.976C76.0992 26.58 76.6482 26.004 77.0622 25.248C77.4942 24.474 77.7102 23.574 77.7102 22.548ZM88.449 17.634V25.869C88.449 26.427 88.575 26.832 88.827 27.084C89.097 27.318 89.547 27.435 90.177 27.435H92.067V30H89.637C88.251 30 87.189 29.676 86.451 29.028C85.713 28.38 85.344 27.327 85.344 25.869V17.634H83.589V15.123H85.344V11.424H88.449V15.123H92.067V17.634H88.449ZM97.9819 17.283C98.4319 16.527 99.0259 15.942 99.7639 15.528C100.52 15.096 101.411 14.88 102.437 14.88V18.066H101.654C100.448 18.066 99.5299 18.372 98.8999 18.984C98.2879 19.596 97.9819 20.658 97.9819 22.17V30H94.9039V15.123H97.9819V17.283ZM111.719 30.243C110.315 30.243 109.046 29.928 107.912 29.298C106.778 28.65 105.887 27.75 105.239 26.598C104.591 25.428 104.267 24.078 104.267 22.548C104.267 21.036 104.6 19.695 105.266 18.525C105.932 17.355 106.841 16.455 107.993 15.825C109.145 15.195 110.432 14.88 111.854 14.88C113.276 14.88 114.563 15.195 115.715 15.825C116.867 16.455 117.776 17.355 118.442 18.525C119.108 19.695 119.441 21.036 119.441 22.548C119.441 24.06 119.099 25.401 118.415 26.571C117.731 27.741 116.795 28.65 115.607 29.298C114.437 29.928 113.141 30.243 111.719 30.243ZM111.719 27.57C112.511 27.57 113.249 27.381 113.933 27.003C114.635 26.625 115.202 26.058 115.634 25.302C116.066 24.546 116.282 23.628 116.282 22.548C116.282 21.468 116.075 20.559 115.661 19.821C115.247 19.065 114.698 18.498 114.014 18.12C113.33 17.742 112.592 17.553 111.8 17.553C111.008 17.553 110.27 17.742 109.586 18.12C108.92 18.498 108.389 19.065 107.993 19.821C107.597 20.559 107.399 21.468 107.399 22.548C107.399 24.15 107.804 25.392 108.614 26.274C109.442 27.138 110.477 27.57 111.719 27.57ZM129.99 14.88C131.16 14.88 132.204 15.123 133.122 15.609C134.058 16.095 134.787 16.815 135.309 17.769C135.831 18.723 136.092 19.875 136.092 21.225V30H133.041V21.684C133.041 20.352 132.708 19.335 132.042 18.633C131.376 17.913 130.467 17.553 129.315 17.553C128.163 17.553 127.245 17.913 126.561 18.633C125.895 19.335 125.562 20.352 125.562 21.684V30H122.484V15.123H125.562V16.824C126.066 16.212 126.705 15.735 127.479 15.393C128.271 15.051 129.108 14.88 129.99 14.88Z" fill="#5864FF"/>
<path d="M26.9724 2.93393C26.3555 2.33172 25.5379 2 24.6667 2C23.7956 2 22.9779 2.33172 22.3584 2.93521L20.5196 4.73672C19.9028 5.33893 19.5624 6.14017 19.5624 6.99372C19.5624 7.59466 19.7306 8.17007 20.0462 8.66893L2.34024 15.6083C1.1561 16.1174 0.30712 17.1623 0.0684663 18.4012C-0.172795 19.6477 0.231481 20.9261 1.1561 21.8294L17.7445 37.8798C18.4591 38.579 19.4085 38.9758 20.4114 38.9987C20.4349 39 20.4896 39 20.5131 39C20.7765 39 21.0439 38.9732 21.3086 38.9209C22.6049 38.6581 23.6665 37.7816 24.1477 36.5886L31.1143 19.5227C31.6385 19.8608 32.2554 20.042 32.897 20.042C33.7708 20.042 34.5884 19.709 35.2027 19.1068L37.0376 17.3103C37.6596 16.7056 38 15.9031 38 15.0482C38 14.1934 37.6583 13.3896 37.0454 12.7925L26.9724 2.93393ZM21.7259 35.6407C21.5642 36.04 21.2082 36.3347 20.7778 36.4215C20.6787 36.4419 20.5783 36.4496 20.4792 36.4483C20.1479 36.4406 19.8284 36.3105 19.5898 36.0757L2.99099 20.0152C2.68583 19.7179 2.5515 19.2918 2.63236 18.8758C2.71191 18.4624 2.99621 18.1129 3.39136 17.9444L11.499 14.7676C16.962 16.5448 22.4262 14.8326 27.8918 20.537L21.7259 35.6407ZM35.2014 15.4986L33.3573 17.3014C33.103 17.5515 32.6896 17.5515 32.4353 17.3014L30.1297 15.047L28.2622 19.626L28.4174 19.2394C24.492 15.4055 20.5027 14.9219 16.9033 14.4894C15.7466 14.3503 14.625 14.2049 13.523 13.9727L24.5963 9.63348L22.3597 7.44538C22.1054 7.19659 22.1054 6.79214 22.3597 6.54334L24.2038 4.738C24.4581 4.48921 24.8715 4.48921 25.1258 4.738L35.2001 14.5966C35.4583 14.8454 35.4583 15.2498 35.2014 15.4986Z" fill="#5864FF"/>
<path d="M21.5186 24.9655C23.3156 24.9655 24.7789 23.5353 24.7789 21.7759C24.7789 20.0164 23.317 18.5862 21.5186 18.5862C19.7202 18.5862 18.2583 20.0164 18.2583 21.7759C18.2583 23.5353 19.7215 24.9655 21.5186 24.9655ZM21.5186 19.8621C22.5984 19.8621 23.4747 20.7194 23.4747 21.7759C23.4747 22.8323 22.5984 23.6897 21.5186 23.6897C20.4375 23.6897 19.5624 22.8323 19.5624 21.7759C19.5624 20.7194 20.4375 19.8621 21.5186 19.8621Z" fill="#5864FF"/>
<path d="M10.4336 19.8621C10.4336 21.2693 11.6034 22.4138 13.0418 22.4138C14.4803 22.4138 15.65 21.2693 15.65 19.8621C15.65 18.4548 14.4803 17.3103 13.0418 17.3103C11.6034 17.3103 10.4336 18.4548 10.4336 19.8621ZM13.0418 18.5862C13.7617 18.5862 14.3459 19.1565 14.3459 19.8621C14.3459 20.5676 13.7617 21.1379 13.0418 21.1379C12.3219 21.1379 11.7377 20.5676 11.7377 19.8621C11.7377 19.1565 12.3219 18.5862 13.0418 18.5862Z" fill="#5864FF"/>
<path d="M16.9542 28.7931C17.6744 28.7931 18.2583 28.2219 18.2583 27.5172C18.2583 26.8126 17.6744 26.2414 16.9542 26.2414C16.2339 26.2414 15.65 26.8126 15.65 27.5172C15.65 28.2219 16.2339 28.7931 16.9542 28.7931Z" fill="#5864FF"/>
</svg>
