<svg width="192" height="187" viewBox="0 0 192 187" fill="none" xmlns="http://www.w3.org/2000/svg">
<path d="M136.282 4.71881C133.165 1.67608 129.033 0 124.632 0C120.23 0 116.099 1.67608 112.969 4.72526L103.678 13.8277C100.561 16.8704 98.8416 20.9188 98.8416 25.2315C98.8416 28.2677 99.6916 31.1751 101.286 33.6957L11.8244 68.758C5.84135 71.3301 1.55176 76.6097 0.345935 82.8693C-0.873071 89.1674 1.16959 95.6268 5.84134 100.191L89.6562 181.287C93.2671 184.82 98.0641 186.825 103.131 186.941C103.25 186.947 103.527 186.947 103.645 186.947C104.976 186.947 106.327 186.812 107.665 186.548C114.214 185.22 119.578 180.791 122.009 174.764L157.209 88.5357C159.858 90.244 162.974 91.1594 166.216 91.1594C170.631 91.1594 174.763 89.4769 177.866 86.4342L187.137 77.3575C190.28 74.3019 192 70.2471 192 65.928C192 61.6088 190.274 57.5476 187.177 54.5306L136.282 4.71881ZM109.773 169.974C108.956 171.992 107.157 173.481 104.983 173.919C104.482 174.022 103.975 174.061 103.474 174.054C101.8 174.016 100.186 173.358 98.98 172.172L15.1124 91.024C13.5705 89.522 12.8918 87.3689 13.3003 85.2673C13.7023 83.1787 15.1387 81.4124 17.1353 80.5614L58.1005 64.5097C85.7027 73.4897 113.312 64.8385 140.927 93.6606L109.773 169.974ZM177.86 68.2036L168.542 77.3124C167.257 78.5759 165.169 78.5759 163.884 77.3124L152.234 65.9215L142.798 89.0579L143.582 87.1046C123.749 67.733 103.592 65.2898 85.4062 63.1044C79.5615 62.4017 73.8948 61.6668 68.3269 60.4936L124.276 38.5692L112.975 27.5135C111.691 26.2564 111.691 24.2129 112.975 22.9558L122.293 13.8341C123.578 12.577 125.666 12.577 126.951 13.8341L177.853 63.6459C179.158 64.903 179.158 66.9465 177.86 68.2036Z" fill="#5864FF"/>
<path d="M108.725 116.036C117.805 116.036 125.198 108.81 125.198 99.9201C125.198 91.0305 117.812 83.804 108.725 83.804C99.6389 83.804 92.2524 91.0305 92.2524 99.9201C92.2524 108.81 99.6455 116.036 108.725 116.036ZM108.725 90.2505C114.181 90.2505 118.609 94.5825 118.609 99.9201C118.609 105.258 114.181 109.59 108.725 109.59C103.263 109.59 98.8416 105.258 98.8416 99.9201C98.8416 94.5825 103.263 90.2505 108.725 90.2505Z" fill="#5864FF"/>
<path d="M52.7171 90.2505C52.7171 97.3609 58.6276 103.143 65.8955 103.143C73.1634 103.143 79.0739 97.3609 79.0739 90.2505C79.0739 83.14 73.1634 77.3575 65.8955 77.3575C58.6276 77.3575 52.7171 83.14 52.7171 90.2505ZM65.8955 83.804C69.5327 83.804 72.4847 86.6856 72.4847 90.2505C72.4847 93.8153 69.5327 96.6969 65.8955 96.6969C62.2582 96.6969 59.3063 93.8153 59.3063 90.2505C59.3063 86.6856 62.2582 83.804 65.8955 83.804Z" fill="#5864FF"/>
<path d="M85.6632 135.376C89.3023 135.376 92.2524 132.49 92.2524 128.929C92.2524 125.369 89.3023 122.483 85.6632 122.483C82.024 122.483 79.0739 125.369 79.0739 128.929C79.0739 132.49 82.024 135.376 85.6632 135.376Z" fill="#5864FF"/>
</svg>
